<svg xmlns="http://www.w3.org/2000/svg" xmlns:xlink="http://www.w3.org/1999/xlink" viewBox="0 0 1000 1000"><defs><style>.cls-1{fill:none;}.cls-2{fill:#fff;}.cls-3{clip-path:url(#clip-path);}</style><clipPath id="clip-path"><rect class="cls-1" width="1000" height="1000"/></clipPath></defs><g id="레이어_1" data-name="레이어 1"><circle class="cls-2" cx="500" cy="500" r="500"/></g><g id="레이어_2" data-name="레이어 2"><g class="cls-3"><g class="cls-3"><path d="M864.82,168.52A91.07,91.07,0,0,0,800,141.67H766.67a357.29,357.29,0,0,0-253.38,105q-6.85,6.85-13.29,14-6.44-7.17-13.29-14a357.29,357.29,0,0,0-253.38-105H200a91.67,91.67,0,0,0-91.67,91.66V766.67A91.67,91.67,0,0,0,200,858.33h33.33a357.29,357.29,0,0,0,253.38-105q6.85-6.86,13.29-14,6.44,7.17,13.29,14a357.29,357.29,0,0,0,253.38,105H800a91.67,91.67,0,0,0,91.67-91.66V233.33a91.07,91.07,0,0,0-26.85-64.81M233.33,808.33H200a41.71,41.71,0,0,1-41.67-41.66V233.33A41.71,41.71,0,0,1,200,191.67h33.33c94.22,0,178.7,42.47,235.3,109.28a358.13,358.13,0,0,0,0,398.1C412,765.86,327.55,808.33,233.33,808.33M500,345.35a307.81,307.81,0,0,1,0,309.3,307.81,307.81,0,0,1,0-309.3M841.67,766.67A41.71,41.71,0,0,1,800,808.33H766.67c-94.22,0-178.7-42.47-235.3-109.28a358.13,358.13,0,0,0,0-398.1c56.6-66.81,141.08-109.28,235.3-109.28H800a41.71,41.71,0,0,1,41.67,41.66Z"/></g></g></g></svg>