<svg xmlns="http://www.w3.org/2000/svg" xmlns:xlink="http://www.w3.org/1999/xlink" viewBox="0 0 1000 1000"><defs><style>.cls-1{fill:none;}.cls-2{fill:#fff;}.cls-3{clip-path:url(#clip-path);}</style><clipPath id="clip-path"><rect class="cls-1" width="1000" height="1000"/></clipPath></defs><g id="레이어_1" data-name="레이어 1"><circle class="cls-2" cx="500" cy="500" r="500"/></g><g id="레이어_2" data-name="레이어 2"><g class="cls-3"><g class="cls-3"><path d="M883,435.18,564.82,117a91.69,91.69,0,0,0-129.64,0L117,435.18a91.69,91.69,0,0,0,0,129.64L435.18,883a91,91,0,0,0,63,26.82c.61,0,1.22.08,1.84.08s1.23,0,1.84-.08a91,91,0,0,0,63-26.82L883,564.82a91.69,91.69,0,0,0,0-129.64M470.54,152.34a41.67,41.67,0,0,1,58.92,0l318.2,318.2a40.53,40.53,0,0,1,3.87,4.46H723.63a225,225,0,0,0-447.26,0H148.46a42.88,42.88,0,0,1,3.88-4.46ZM500,475H429.29a75,75,0,0,1,141.42,0Zm122.5,0a125,125,0,0,0-245,0H326.78C339,390.3,412,325,500,325s161,65.3,173.22,150Zm-474,50H439.64L293.76,670.88,152.34,529.46a42.88,42.88,0,0,1-3.88-4.46M329.12,706.24,475,560.36V851.53a40.53,40.53,0,0,1-4.46-3.87ZM529.46,847.66a40.53,40.53,0,0,1-4.46,3.87V560.36L670.88,706.24ZM706.24,670.88,560.36,525H851.53a40.53,40.53,0,0,1-3.87,4.46Z"/></g></g></g></svg>