<svg xmlns="http://www.w3.org/2000/svg" xmlns:xlink="http://www.w3.org/1999/xlink" viewBox="0 0 1000 1000"><defs><style>.cls-1{fill:none;}.cls-2{fill:#fff;}.cls-3{clip-path:url(#clip-path);}</style><clipPath id="clip-path"><rect class="cls-1" width="1000" height="1000"/></clipPath></defs><g id="레이어_1" data-name="레이어 1"><circle class="cls-2" cx="500" cy="500" r="500"/></g><g id="레이어_2" data-name="레이어 2"><g class="cls-3"><g class="cls-3"><path d="M875,475a25,25,0,0,0-25,25c0,184.59-143.63,336.25-325,349.11V691.67H666.67a25,25,0,0,0,0-50H525V525H750a25,25,0,0,0,0-50H525V358.33H666.67a25,25,0,0,0,0-50H525V125a25,25,0,0,0-50,0V308.33H333.33a25,25,0,0,0,0,50H475V475H250a25,25,0,0,0,0,50H475V641.67H333.33a25,25,0,0,0,0,50H475V849.11C293.63,836.25,150,684.59,150,500a25,25,0,0,0-50,0,400,400,0,1,0,800,0,25,25,0,0,0-25-25"/></g></g></g></svg>