<svg xmlns="http://www.w3.org/2000/svg" xmlns:xlink="http://www.w3.org/1999/xlink" viewBox="0 0 1000 1000"><defs><style>.cls-1{fill:none;}.cls-2{fill:#fff;}.cls-3{clip-path:url(#clip-path);}</style><clipPath id="clip-path"><rect class="cls-1" width="1000" height="1000"/></clipPath></defs><g id="레이어_1" data-name="레이어 1"><circle class="cls-2" cx="500" cy="500" r="500"/></g><g id="레이어_2" data-name="레이어 2"><g class="cls-3"><g class="cls-3"><path d="M812.31,541.25,771.06,500l41.25-41.25a191.54,191.54,0,0,0,0-271.06h0a191.54,191.54,0,0,0-271.06,0L500,228.94l-41.25-41.25a191.52,191.52,0,0,0-271,0h0a191.53,191.53,0,0,0,0,271.05L228.94,500l-41.25,41.25a191.54,191.54,0,0,0,0,271.06h0a191.54,191.54,0,0,0,271.06,0L500,771.06l41.25,41.25A191.67,191.67,0,1,0,812.31,541.25M777,576.6c49.21,49.21,54.58,125.9,16.12,181.11L653.21,617.85l82.49-82.49Zm0-153.2L725.35,475h-165L793.07,242.29C831.53,297.5,826.16,374.19,777,423.4M576.6,223.05a141.77,141.77,0,0,1,181.13-16.13L525,439.64v-165Zm-153.2,0,41.24,41.25-82.49,82.49L242.29,206.93c55.21-38.46,131.9-33.09,181.11,16.12M223.05,423.4c-49.21-49.21-54.58-125.9-16.12-181.11L346.79,382.15,264.3,464.64Zm0,153.2,252-252v165L206.92,757.73A141.77,141.77,0,0,1,223.05,576.6M423.4,777c-49.21,49.21-125.9,54.58-181.11,16.12L510.36,525h165l-75.17,75.17h0L482.33,718h0Zm153.2,0L535.36,735.7l82.49-82.49L757.71,793.07C702.5,831.53,625.81,826.16,576.6,777"/></g></g></g></svg>