<svg xmlns="http://www.w3.org/2000/svg" xmlns:xlink="http://www.w3.org/1999/xlink" viewBox="0 0 1000 1000"><defs><style>.cls-1{fill:none;}.cls-2{fill:#fff;}.cls-3{clip-path:url(#clip-path);}</style><clipPath id="clip-path"><rect class="cls-1" width="1000" height="1000"/></clipPath></defs><g id="레이어_1" data-name="레이어 1"><circle class="cls-2" cx="500" cy="500" r="500"/></g><g id="레이어_2" data-name="레이어 2"><g class="cls-3"><g class="cls-3"><path d="M847.52,549.22c34.82-67.53,52.48-133.16,52.48-195A233.17,233.17,0,0,0,666.67,120.83a234.16,234.16,0,0,0-55.36,6.62,231.54,231.54,0,0,0-50.65,18.81A235,235,0,0,0,500,190.9a235,235,0,0,0-60.66-44.64,231.54,231.54,0,0,0-50.65-18.81A233.58,233.58,0,0,0,118.35,263.34,231.77,231.77,0,0,0,100,354.17c0,61.89,17.66,127.52,52.47,195.05l2,3.88a2.12,2.12,0,0,0,.11.21,700.89,700.89,0,0,0,52.08,83.55,870.56,870.56,0,0,0,63.64,77.94c40.61,44.35,86.71,85.8,129.81,116.71,19.94,14.3,38.22,25.66,54.36,33.77,18.6,9.34,33.49,13.89,45.5,13.89s26.9-4.55,45.5-13.89c16.14-8.11,34.42-19.47,54.36-33.77,43.1-30.91,89.2-72.36,129.81-116.71a870.56,870.56,0,0,0,63.64-77.94,700.58,700.58,0,0,0,52.07-83.53l.13-.24q1-1.94,2-3.87M666.67,170.83C767.76,170.83,850,253.08,850,354.17c0,46.1-11.49,91.35-29,133.51-53.7-86-120.93-152-159.42-186.19-31.45-27.93-62.9-51.86-90.94-69.21-9.36-5.8-18.17-10.75-26.32-14.79a181.73,181.73,0,0,1,122.3-46.66M475,263.71v253H219.79C270.26,435,334.53,371.8,371.16,339.24c29.29-26,58.34-48.23,84-64.16,7.74-4.81,14.32-8.52,19.84-11.37m50,0c5.52,2.85,12.1,6.56,19.84,11.37,25.66,15.93,54.71,38.12,84,64.16C665.47,371.8,729.74,435,780.21,516.67H525ZM333.33,170.83a181.73,181.73,0,0,1,122.3,46.66c-8.15,4-17,9-26.32,14.79-28,17.35-59.49,41.28-90.94,69.21C299.88,335.66,232.65,401.68,179,487.68,161.49,445.52,150,400.27,150,354.17c0-101.09,82.24-183.34,183.33-183.34M428.75,790.5c-40.38-29-83.68-68.06-121.95-109.91-25.28-27.65-58-67.13-86.92-113.92H475V819.61c-13.37-6.9-29.32-16.93-46.25-29.11M693.2,680.59c-38.27,41.85-81.57,80.88-122,109.91-16.93,12.18-32.88,22.21-46.25,29.11V566.67H780.12c-29,46.79-61.64,86.27-86.92,113.92"/></g></g></g></svg>