<svg xmlns="http://www.w3.org/2000/svg" xmlns:xlink="http://www.w3.org/1999/xlink" viewBox="0 0 1000 1000"><defs><style>.cls-1{fill:none;}.cls-2{fill:#fff;}.cls-3{clip-path:url(#clip-path);}</style><clipPath id="clip-path"><rect class="cls-1" width="1000" height="1000"/></clipPath></defs><g id="레이어_1" data-name="레이어 1"><circle class="cls-2" cx="500" cy="500" r="500"/></g><g id="레이어_2" data-name="레이어 2"><g class="cls-3"><g class="cls-3"><path d="M896.83,360.51A358.07,358.07,0,0,0,566.67,141.67a25,25,0,0,0-25,25V475H458.33V166.67a25,25,0,0,0-25-25,358.33,358.33,0,1,0,0,716.66,25,25,0,0,0,25-25V525h83.34V833.33a25,25,0,0,0,25,25A358.52,358.52,0,0,0,896.83,360.51M408.33,807.33C250,794.56,125,661.6,125,500S250,205.44,408.33,192.67Zm183.34,0V192.67C750,205.44,875,338.4,875,500S750,794.56,591.67,807.33"/></g></g></g></svg>