<svg xmlns="http://www.w3.org/2000/svg" xmlns:xlink="http://www.w3.org/1999/xlink" viewBox="0 0 1000 1000"><defs><style>.cls-1{fill:none;}.cls-2{fill:#fff;}.cls-3{clip-path:url(#clip-path);}</style><clipPath id="clip-path"><rect class="cls-1" width="1000" height="1000"/></clipPath></defs><g id="레이어_1" data-name="레이어 1"><circle class="cls-2" cx="500" cy="500" r="500"/></g><g id="레이어_2" data-name="레이어 2"><g class="cls-3"><g class="cls-3"><path d="M904.2,368.67A158.23,158.23,0,0,0,704.69,267c-18.42,6-40.27,20.08-66.68,43,13.67-32.2,20.32-57.34,20.32-76.71a158.33,158.33,0,1,0-316.66,0c0,19.37,6.65,44.51,20.32,76.71-26.41-23-48.26-37.05-66.68-43a158.33,158.33,0,1,0-97.85,301.17c12.18,4,27.66,5.93,46.83,5.93q14.72,0,32.4-1.55c-30,18-50.15,34.45-61.53,50.11A158.33,158.33,0,1,0,471.35,808.8c11.38-15.66,20.78-39.91,28.65-74,7.87,34.09,17.27,58.34,28.65,74h0A158.33,158.33,0,1,0,784.84,622.67c-11.38-15.66-31.55-32.09-61.53-50.11q17.7,1.55,32.4,1.55c19.17,0,34.65-2,46.83-5.93A158.23,158.23,0,0,0,904.2,368.67M500,125A108.45,108.45,0,0,1,608.33,233.33c0,7.48-2.42,25.56-18.66,62.55C579,320.16,564.05,349,545.2,381.47c-6.81,11.75-13.65,23.14-20.2,33.81V233.33a25,25,0,0,0-50,0V415.28c-6.5-10.59-13.28-21.88-20-33.54-18.89-32.56-33.89-61.41-44.57-85.73-16.29-37.08-18.72-55.18-18.72-62.68A108.45,108.45,0,0,1,500,125M212.91,520.63a108.34,108.34,0,1,1,67-206.07c7.12,2.32,23.56,10.21,53.72,37.08,19.8,17.65,42.56,40.77,67.66,68.75C410.31,430.5,419,440.51,427.15,450l-173-56.22a25,25,0,0,0-15.45,47.55l173,56.23c-12.08,2.91-24.91,5.86-38.09,8.69-36.81,7.9-68.87,13.25-95.31,15.9-40.29,4-58.27.75-65.39-1.56M452.56,717.84c-8.6,39.48-17.26,55.52-21.66,61.57A108.33,108.33,0,0,1,255.61,652.06c4.4-6,17-19.25,51.87-39.63,22.9-13.38,51.92-27.88,86.28-43.1,12.42-5.5,24.64-10.7,36.22-15.48L323,701a25,25,0,1,0,40.45,29.39l107-147.19c-1,12.48-2.14,25.71-3.54,39.22-3.86,37.38-8.68,69.47-14.33,95.38m291.83-65.78A108.33,108.33,0,1,1,569.1,779.41h0c-4.4-6-13.06-22.09-21.67-61.57-5.64-25.91-10.46-58-14.32-95.38-1.4-13.51-2.56-26.74-3.54-39.22L636.52,730.43A25,25,0,0,0,677,701L570,553.85c11.48,4.74,23.61,9.89,35.93,15.35,34.42,15.24,63.51,29.76,86.45,43.16,35,20.42,47.58,33.64,52,39.7M850.14,466.78a107.68,107.68,0,0,1-63,53.85c-7.11,2.31-25.05,5.59-65.25,1.57-26.39-2.63-58.4-8-95.14-15.84-13.28-2.85-26.22-5.83-38.4-8.76l173-56.23a25,25,0,0,0-15.45-47.55L572.85,450c8.13-9.53,16.85-19.55,25.91-29.65,25.1-28,47.86-51.1,67.66-68.75,30.16-26.87,46.6-34.76,53.72-37.08a108.33,108.33,0,0,1,130,152.22"/></g></g></g></svg>