<svg xmlns="http://www.w3.org/2000/svg" xmlns:xlink="http://www.w3.org/1999/xlink" viewBox="0 0 1000 1000"><defs><style>.cls-1{fill:none;}.cls-2{fill:#fff;}.cls-3{clip-path:url(#clip-path);}</style><clipPath id="clip-path"><rect class="cls-1" width="1000" height="1000"/></clipPath></defs><g id="레이어_1" data-name="레이어 1"><circle class="cls-2" cx="500" cy="500" r="500"/></g><g id="레이어_2" data-name="레이어 2"><g class="cls-3"><g class="cls-3"><path d="M909.86,500A91.08,91.08,0,0,0,883,435.18l-66.35-66.35V275A91.67,91.67,0,0,0,725,183.33H631.17L564.82,117a91.69,91.69,0,0,0-129.64,0l-66.35,66.35H275A91.67,91.67,0,0,0,183.33,275v93.83L117,435.18a91.69,91.69,0,0,0,0,129.64l66.35,66.35V725A91.67,91.67,0,0,0,275,816.67h93.83L435.18,883a91.69,91.69,0,0,0,129.64,0l66.35-66.35H725A91.67,91.67,0,0,0,816.67,725V631.17L883,564.82A91.1,91.1,0,0,0,909.86,500M725,233.33A41.71,41.71,0,0,1,766.67,275v43.83l-85.5-85.5ZM389.54,766.67l-60.42-60.43L475,560.36V766.67ZM233.33,610.46V525H439.64L293.76,670.88ZM610.46,233.33l60.42,60.43L525,439.64V233.33ZM475,439.64,329.12,293.76l60.42-60.43H475ZM293.76,329.12,439.64,475H233.33V389.54ZM525,560.36,670.88,706.24l-60.42,60.43H525ZM706.24,670.88,560.36,525H766.67v85.46ZM766.67,475H560.36L706.24,329.12l60.43,60.42ZM470.54,152.34a41.67,41.67,0,0,1,58.92,0l31,31H439.54ZM233.33,275A41.71,41.71,0,0,1,275,233.33h43.83l-85.5,85.5Zm-81,254.46a41.67,41.67,0,0,1,0-58.92l31-31V560.46ZM275,766.67A41.71,41.71,0,0,1,233.33,725V681.17l42.75,42.74h0l42.74,42.75Zm254.46,81a41.7,41.7,0,0,1-58.92,0l-31-31H560.46ZM766.67,725A41.71,41.71,0,0,1,725,766.67H681.17l85.5-85.5Zm81-195.54-31,31V439.54l31,31a41.7,41.7,0,0,1,0,58.92"/></g></g></g></svg>