<svg xmlns="http://www.w3.org/2000/svg" xmlns:xlink="http://www.w3.org/1999/xlink" viewBox="0 0 1000 1000"><defs><style>.cls-1{fill:none;}.cls-2{fill:#fff;}.cls-3{clip-path:url(#clip-path);}</style><clipPath id="clip-path"><rect class="cls-1" width="1000" height="1000"/></clipPath></defs><g id="레이어_1" data-name="레이어 1"><circle class="cls-2" cx="500" cy="500" r="500"/></g><g id="레이어_2" data-name="레이어 2"><g class="cls-3"><g class="cls-3"><path d="M886.24,431.87A174.86,174.86,0,0,0,725,325c-23.57,0-50.52,8.72-82.37,26.65-23.35,13.15-49.26,31.31-77,54C550.7,417.83,536.91,430,525,440.86V312.5a25,25,0,0,0-50,0V438.21c-9.76-10.73-20.39-22.9-31-35.86C384,328.74,375,291,375,275a125,125,0,0,1,250,0,25,25,0,0,0,50,0,175,175,0,1,0-350,0c0,23.57,8.72,50.52,26.65,82.37,13.15,23.35,31.31,49.26,54,77C417.83,449.3,430,463.09,440.86,475H312.5a25,25,0,0,0,0,50H438.21c-10.73,9.76-22.9,20.39-35.86,31C328.74,616,291,625,275,625a125,125,0,0,1,0-250,25,25,0,0,0,0-50,175,175,0,1,0,0,350c23.57,0,50.52-8.72,82.37-26.65,23.35-13.15,49.26-31.31,77-54,14.92-12.19,28.71-24.31,40.62-35.22V687.5a25,25,0,0,0,50,0V561.79c9.76,10.73,20.39,22.9,31,35.86C616,671.26,625,709,625,725a125,125,0,0,1-250,0,25,25,0,0,0-50,0,175,175,0,1,0,350,0c0-23.57-8.72-50.52-26.65-82.37-13.15-23.35-31.31-49.26-54-77-12.19-14.92-24.31-28.71-35.22-40.62H687.5a25,25,0,0,0,0-50H561.79c10.73-9.76,22.9-20.39,35.86-31C671.26,384,709,375,725,375a125,125,0,0,1,0,250,25,25,0,0,0,0,50A175.09,175.09,0,0,0,886.24,431.87"/></g></g></g></svg>