<svg xmlns="http://www.w3.org/2000/svg" xmlns:xlink="http://www.w3.org/1999/xlink" viewBox="0 0 1000 1000"><defs><style>.cls-1{fill:none;}.cls-2{fill:#fff;}.cls-3{clip-path:url(#clip-path);}</style><clipPath id="clip-path"><rect class="cls-1" width="1000" height="1000"/></clipPath></defs><g id="레이어_1" data-name="레이어 1"><circle class="cls-2" cx="500" cy="500" r="500"/></g><g id="레이어_2" data-name="레이어 2"><g class="cls-3"><g class="cls-3"><path d="M918.62,483.32c-1-1.11-24.8-27.51-63-53.89A339.39,339.39,0,0,0,787,392.35q-7.26-2.85-14.5-5.22a294,294,0,0,0,15.95-38.23,369.52,369.52,0,0,0,15.28-64.62c5.66-38.7,4.17-67.3,4.1-68.5a25,25,0,0,0-23.58-23.58c-1.2-.07-29.8-1.56-68.5,4.1a369.52,369.52,0,0,0-64.62,15.28,294,294,0,0,0-38.23,15.95q-2.39-7.25-5.22-14.5a339.39,339.39,0,0,0-37.08-68.66c-26.38-38.19-52.78-62-53.89-63a25,25,0,0,0-33.36,0c-1.11,1-27.51,24.8-53.89,63A339.39,339.39,0,0,0,392.35,213q-2.85,7.26-5.22,14.5a294,294,0,0,0-38.23-15.95,369.52,369.52,0,0,0-64.62-15.28c-38.7-5.66-67.3-4.17-68.5-4.1a25,25,0,0,0-23.58,23.58c-.07,1.2-1.56,29.8,4.1,68.5a369.52,369.52,0,0,0,15.28,64.62,295.4,295.4,0,0,0,15.94,38.23q-7.23,2.39-14.49,5.22a339.39,339.39,0,0,0-68.66,37.08c-38.19,26.38-62,52.78-63,53.89a25,25,0,0,0,0,33.36c1,1.11,24.8,27.51,63,53.89A339.39,339.39,0,0,0,213,607.65C242.41,619.16,271.67,625,300,625s57.59-5.84,87-17.35a339.39,339.39,0,0,0,68.66-37.08c6.95-4.8,13.42-9.6,19.37-14.25V900a25,25,0,0,0,50,0V556.32c6,4.65,12.42,9.45,19.37,14.25A339.39,339.39,0,0,0,613,607.65C642.41,619.16,671.67,625,700,625s57.59-5.84,87-17.35a339.39,339.39,0,0,0,68.66-37.08c38.19-26.38,62-52.78,63-53.89a25,25,0,0,0,0-33.36M721.84,245.94c13.67-2,25.95-3.06,35.77-3.55-.49,9.82-1.51,22.1-3.55,35.77-4,27-12.93,64.53-32.48,97.95A212.21,212.21,0,0,0,700,375c-28.33,0-57.59,5.84-87,17.35q-4.57,1.78-9.14,3.76,2-4.58,3.76-9.14C619.16,357.59,625,328.33,625,300a212.21,212.21,0,0,0-1.11-21.58c33.42-19.55,71-28.44,98-32.48m-252-72.17A365.15,365.15,0,0,1,500,135.69a365.15,365.15,0,0,1,30.11,38.08C550.59,203.64,575,249.79,575,300s-24.41,96.36-44.89,126.23q-2.55,3.72-5.11,7.25V300a25,25,0,0,0-50,0V433.48q-2.55-3.53-5.11-7.25C449.41,396.36,425,350.21,425,300s24.41-96.36,44.89-126.23M245.94,278.16c-2-13.67-3.06-26-3.55-35.77,9.82.49,22.11,1.51,35.77,3.55,27,4,64.53,12.93,97.95,32.48A212.21,212.21,0,0,0,375,300c0,28.33,5.84,57.59,17.35,87q1.78,4.57,3.76,9.14-4.58-2-9.14-3.76C357.59,380.84,328.33,375,300,375a212.21,212.21,0,0,0-21.58,1.11c-19.55-33.42-28.44-71-32.48-97.95M300,575c-50.21,0-96.36-24.41-126.23-44.89A365.15,365.15,0,0,1,135.69,500a365.15,365.15,0,0,1,38.08-30.11C203.64,449.41,249.79,425,300,425s96.36,24.41,126.23,44.89q3.72,2.55,7.25,5.11H300a25,25,0,0,0,0,50H433.48q-3.53,2.55-7.25,5.11C396.36,550.59,350.21,575,300,575m526.23-44.89C796.36,550.59,750.21,575,700,575s-96.36-24.41-126.23-44.89q-3.72-2.55-7.25-5.11H700a25,25,0,0,0,0-50H566.52q3.53-2.55,7.25-5.11C603.64,449.41,649.79,425,700,425s96.36,24.41,126.23,44.89A365.15,365.15,0,0,1,864.31,500a365.15,365.15,0,0,1-38.08,30.11"/></g></g></g></svg>