<svg xmlns="http://www.w3.org/2000/svg" xmlns:xlink="http://www.w3.org/1999/xlink" viewBox="0 0 1000 1000"><defs><style>.cls-1{fill:none;}.cls-2{fill:#fff;}.cls-3{clip-path:url(#clip-path);}</style><clipPath id="clip-path"><rect id="SVGID" class="cls-1" width="1000" height="1000"/></clipPath></defs><g id="레이어_1" data-name="레이어 1"><circle class="cls-2" cx="500" cy="500" r="500"/></g><g id="레이어_2" data-name="레이어 2"><g class="cls-3"><g class="cls-3"><path d="M896.83,360.51A359.06,359.06,0,0,0,500,147.84a359.77,359.77,0,0,0-66.67-6.17,358.33,358.33,0,1,0,0,716.66A359.77,359.77,0,0,0,500,852.16a359.77,359.77,0,0,0,66.67,6.17A358.52,358.52,0,0,0,896.83,360.51M741.67,500c0,138.11-91.28,255.3-216.67,294.42V710.36l216.6-216.6c0,2.07.07,4.15.07,6.24M475,205.58V439.64L333.65,298.29A309.13,309.13,0,0,1,475,205.58M303.74,339.1,475,510.36V639.64L266.16,430.81a306.52,306.52,0,0,1,37.58-91.71M258.4,493.76,475,710.36v84.06C349.61,755.3,258.33,638.11,258.33,500c0-2.09,0-4.17.07-6.24M525,639.64V510.36L696.26,339.1a306.52,306.52,0,0,1,37.58,91.71Zm0-200V205.58a309.13,309.13,0,0,1,141.35,92.71ZM125,500c0-150,107.72-275.39,249.89-302.78a358.63,358.63,0,0,0,0,605.56C232.72,775.39,125,650,125,500M625.11,802.78a358.63,358.63,0,0,0,0-605.56C767.28,224.61,875,350,875,500S767.28,775.39,625.11,802.78"/></g></g></g></svg>