<svg xmlns="http://www.w3.org/2000/svg" xmlns:xlink="http://www.w3.org/1999/xlink" viewBox="0 0 1000 1000"><defs><style>.cls-1{fill:none;}.cls-2{fill:#fff;}.cls-3{clip-path:url(#clip-path);}</style><clipPath id="clip-path"><rect id="SVGID" class="cls-1" width="1000" height="1000"/></clipPath></defs><g id="레이어_1" data-name="레이어 1"><circle class="cls-2" cx="500" cy="500" r="500"/></g><g id="레이어_2" data-name="레이어 2"><g class="cls-3"><g class="cls-3"><path d="M890.15,412.41A225,225,0,0,0,721.67,278.33a225,225,0,0,0-443.34,0,225,225,0,0,0,0,443.34,225,225,0,0,0,443.34,0A225.18,225.18,0,0,0,890.15,412.41M856.06,475H653a545.33,545.33,0,0,0,37.23-54.32c10.65-18,19-35.25,24.68-51.23A171,171,0,0,0,724.32,330C793,346.71,845.87,404.05,856.06,475M500,433.63c7.93,7.31,18.27,17.08,30,28.66,15,14.87,27.5,28.08,36.39,37.71-8.11,8.79-19.23,20.55-32.51,33.84S508.79,558.25,500,566.36c-8.78-8.1-20.53-19.21-33.8-32.47S441.75,508.8,433.63,500c7.31-7.92,17.06-18.25,28.63-29.94,14.88-15,28.1-27.53,37.74-36.43m99.43,28.45q-2.85-3.06-6.07-6.46c-8.1-8.59-16-16.66-23.38-24.08l-.75-.75-.78-.79c-7.42-7.4-15.47-15.25-24-23.34q-3.42-3.23-6.49-6.09c23.82-19.57,46.23-35.6,66.86-47.8,27.11-16,50.51-25.19,69.75-27.3-2.1,19.18-11.21,42.52-27.16,69.53-12.22,20.68-28.3,43.18-47.94,67.08M455.59,406.66c-8.58,8.1-16.63,15.95-24,23.35l-.76.77-.77.76c-7.4,7.42-15.25,15.47-23.35,24q-3.23,3.41-6.09,6.49c-19.64-23.9-35.72-46.4-47.94-67.08-15.95-27-25.06-50.35-27.16-69.53,19.18,2.1,42.52,11.21,69.53,27.16,20.68,12.22,43.18,28.3,67.08,47.94q-3.07,2.87-6.49,6.09m-55,131.26q2.87,3.06,6.09,6.49c8.09,8.57,15.94,16.62,23.34,24l.79.79.75.75c7.42,7.41,15.49,15.28,24.08,23.38q3.39,3.23,6.46,6.07c-23.9,19.64-46.4,35.72-67.08,47.94-27,16-50.35,25.06-69.53,27.16,2.1-19.18,11.21-42.52,27.16-69.53,12.22-20.68,28.3-43.18,47.94-67.08m143.81,55.45c8.59-8.11,16.65-16,24.07-23.38l.77-.77.77-.77c7.41-7.42,15.27-15.48,23.38-24.07q3.21-3.39,6.06-6.46c19.57,23.82,35.6,46.23,47.8,66.86,16,27.11,25.19,50.51,27.3,69.75-19.18-2.1-42.52-11.21-69.53-27.16-20.68-12.22-43.18-28.3-67.08-47.94q3.06-2.85,6.46-6.06M670,275.68a170.5,170.5,0,0,0-39.49,9.38c-16,5.71-33.22,14-51.23,24.67A545.33,545.33,0,0,0,525,347v-203c71,10.19,128.29,63.1,145,131.74M475,143.94V347a545.33,545.33,0,0,0-54.32-37.23c-18-10.65-35.25-19-51.23-24.67A170.5,170.5,0,0,0,330,275.68C346.71,207,404.05,154.13,475,143.94M275.68,330a170.5,170.5,0,0,0,9.38,39.49c5.71,16,14,33.22,24.67,51.23A545.33,545.33,0,0,0,347,475h-203c10.19-70.95,63.1-128.29,131.74-145M143.94,525H347a545.33,545.33,0,0,0-37.23,54.32c-10.65,18-19,35.25-24.67,51.23A170.5,170.5,0,0,0,275.68,670C207,653.29,154.13,596,143.94,525M330,724.32a170.5,170.5,0,0,0,39.49-9.38c16-5.71,33.22-14,51.23-24.67A545.33,545.33,0,0,0,475,653v203C404.05,845.87,346.71,793,330,724.32M525,856.06V653a545.33,545.33,0,0,0,54.32,37.23c18,10.65,35.25,19,51.23,24.67A170.5,170.5,0,0,0,670,724.32C653.29,793,596,845.87,525,856.06M724.32,670A171,171,0,0,0,715,630.55c-5.72-16-14-33.22-24.68-51.23A545.33,545.33,0,0,0,653,525h203C845.87,596,793,653.29,724.32,670"/></g></g></g></svg>